<svg width="219" height="90" viewBox="0 0 219 90" fill="none" xmlns="http://www.w3.org/2000/svg">
<path d="M58.3789 31.84V57.76H70.1389V70.12H58.3789V88.12H43.2589V70.12H0.178906V60.16L39.5389 1.59999H56.0989L18.2989 57.76H43.2589V31.84H58.3789ZM141.793 51.52C141.793 63.84 139.193 73.24 133.993 79.72C128.793 86.2 120.953 89.44 110.473 89.44C100.153 89.44 92.193 86.16 86.593 79.6C80.993 73.04 78.193 63.68 78.193 51.52V38.08C78.193 25.92 80.953 16.6 86.473 10.12C92.073 3.56 99.953 0.279996 110.113 0.279996C120.353 0.279996 128.193 3.56 133.633 10.12C139.073 16.6 141.793 25.92 141.793 38.08V51.52ZM126.313 37.96C126.313 33 125.833 29 124.873 25.96C123.993 22.92 122.793 20.6 121.273 19C119.833 17.32 118.113 16.2 116.113 15.64C114.193 15.08 112.193 14.8 110.113 14.8C108.113 14.8 106.113 15.08 104.113 15.64C102.193 16.2 100.433 17.32 98.833 19C97.313 20.68 96.073 23.04 95.113 26.08C94.153 29.12 93.673 33.08 93.673 37.96V51.64C93.673 56.6 94.153 60.6 95.113 63.64C96.153 66.68 97.473 69.04 99.073 70.72C100.673 72.4 102.473 73.52 104.473 74.08C106.473 74.64 108.473 74.92 110.473 74.92C112.553 74.92 114.553 74.64 116.473 74.08C118.393 73.52 120.073 72.44 121.513 70.84C122.953 69.16 124.113 66.8 124.993 63.76C125.873 60.72 126.313 56.68 126.313 51.64V37.96ZM207.207 31.84V57.76H218.967V70.12H207.207V88.12H192.087V70.12H149.007V60.16L188.367 1.59999H204.927L167.127 57.76H192.087V31.84H207.207Z" fill="#78CA94"/>
</svg>
