<svg width="212" height="90" viewBox="0 0 212 90" fill="none" xmlns="http://www.w3.org/2000/svg">
<path d="M46.5389 59.7C46.5389 55.06 45.1789 51.5 42.4589 49.02C39.8189 46.54 36.0989 45.3 31.2989 45.3C27.6189 45.3 24.4189 45.98 21.6989 47.34C19.0589 48.7 16.7789 50.3 14.8589 52.14H4.53891L7.29891 2.09999H56.3789V14.82H21.0989L20.1389 37.38C22.1389 36.18 24.4189 35.14 26.9789 34.26C29.5389 33.38 32.6189 32.94 36.2189 32.94C40.3789 32.94 44.0589 33.66 47.2589 35.1C50.4589 36.54 53.1389 38.5 55.2989 40.98C57.5389 43.38 59.2189 46.18 60.3389 49.38C61.4589 52.58 62.0189 55.9 62.0189 59.34V61.14C62.0189 64.58 61.4189 68.02 60.2189 71.46C59.0989 74.9 57.2589 77.98 54.6989 80.7C52.2189 83.42 49.0189 85.62 45.0989 87.3C41.2589 89.06 36.6189 89.94 31.1789 89.94C24.9389 89.94 19.3389 89.22 14.3789 87.78C9.41891 86.42 4.77891 83.94 0.458907 80.34L7.89891 68.22C9.89891 69.82 11.8589 71.14 13.7789 72.18C15.6989 73.22 17.5789 74.02 19.4189 74.58C21.3389 75.14 23.2589 75.54 25.1789 75.78C27.0989 75.94 29.0589 76.02 31.0589 76.02C36.3389 76.02 40.2189 74.62 42.6989 71.82C45.2589 68.94 46.5389 65.34 46.5389 61.02V59.7ZM136.793 52.02C136.793 64.34 134.193 73.74 128.993 80.22C123.793 86.7 115.953 89.94 105.473 89.94C95.153 89.94 87.193 86.66 81.593 80.1C75.993 73.54 73.193 64.18 73.193 52.02V38.58C73.193 26.42 75.953 17.1 81.473 10.62C87.073 4.06 94.953 0.779996 105.113 0.779996C115.353 0.779996 123.193 4.06 128.633 10.62C134.073 17.1 136.793 26.42 136.793 38.58V52.02ZM121.313 38.46C121.313 33.5 120.833 29.5 119.873 26.46C118.993 23.42 117.793 21.1 116.273 19.5C114.833 17.82 113.113 16.7 111.113 16.14C109.193 15.58 107.193 15.3 105.113 15.3C103.113 15.3 101.113 15.58 99.113 16.14C97.193 16.7 95.433 17.82 93.833 19.5C92.313 21.18 91.073 23.54 90.113 26.58C89.153 29.62 88.673 33.58 88.673 38.46V52.14C88.673 57.1 89.153 61.1 90.113 64.14C91.153 67.18 92.473 69.54 94.073 71.22C95.673 72.9 97.473 74.02 99.473 74.58C101.473 75.14 103.473 75.42 105.473 75.42C107.553 75.42 109.553 75.14 111.473 74.58C113.393 74.02 115.073 72.94 116.513 71.34C117.953 69.66 119.113 67.3 119.993 64.26C120.873 61.22 121.313 57.18 121.313 52.14V38.46ZM211.207 52.02C211.207 64.34 208.607 73.74 203.407 80.22C198.207 86.7 190.367 89.94 179.887 89.94C169.567 89.94 161.607 86.66 156.007 80.1C150.407 73.54 147.607 64.18 147.607 52.02V38.58C147.607 26.42 150.367 17.1 155.887 10.62C161.487 4.06 169.367 0.779996 179.527 0.779996C189.767 0.779996 197.607 4.06 203.047 10.62C208.487 17.1 211.207 26.42 211.207 38.58V52.02ZM195.727 38.46C195.727 33.5 195.247 29.5 194.287 26.46C193.407 23.42 192.207 21.1 190.687 19.5C189.247 17.82 187.527 16.7 185.527 16.14C183.607 15.58 181.607 15.3 179.527 15.3C177.527 15.3 175.527 15.58 173.527 16.14C171.607 16.7 169.847 17.82 168.247 19.5C166.727 21.18 165.487 23.54 164.527 26.58C163.567 29.62 163.087 33.58 163.087 38.46V52.14C163.087 57.1 163.567 61.1 164.527 64.14C165.567 67.18 166.887 69.54 168.487 71.22C170.087 72.9 171.887 74.02 173.887 74.58C175.887 75.14 177.887 75.42 179.887 75.42C181.967 75.42 183.967 75.14 185.887 74.58C187.807 74.02 189.487 72.94 190.927 71.34C192.367 69.66 193.527 67.3 194.407 64.26C195.287 61.22 195.727 57.18 195.727 52.14V38.46Z" fill="#78CA94"/>
</svg>
