<svg width="24" height="24" viewBox="0 0 24 24" fill="none" xmlns="http://www.w3.org/2000/svg">
<path fill-rule="evenodd" clip-rule="evenodd" d="M11.9996 1.25C7.71934 1.25 4.24955 4.71979 4.24955 9V9.7041C4.24955 10.401 4.04326 11.0824 3.65668 11.6622L2.50808 13.3851C1.17498 15.3848 2.19269 18.1028 4.51128 18.7351C5.26689 18.9412 6.02888 19.1155 6.79529 19.2581L6.79719 19.2632C7.56618 21.3151 9.62149 22.75 11.9995 22.75C14.3775 22.75 16.4328 21.3151 17.2018 19.2632L17.2037 19.2581C17.9701 19.1155 18.7322 18.9412 19.4878 18.7351C21.8064 18.1028 22.8241 15.3848 21.491 13.3851L20.3424 11.6622C19.9558 11.0824 19.7496 10.401 19.7496 9.7041V9C19.7496 4.71979 16.2798 1.25 11.9996 1.25ZM15.376 19.537C13.133 19.805 10.866 19.8049 8.623 19.5369C9.33396 20.5585 10.5705 21.25 11.9995 21.25C13.4284 21.25 14.665 20.5585 15.376 19.537ZM5.74955 9C5.74955 5.54822 8.54777 2.75 11.9996 2.75C15.4513 2.75 18.2496 5.54822 18.2496 9V9.7041C18.2496 10.6972 18.5435 11.668 19.0943 12.4943L20.243 14.2172C21.0081 15.3649 20.424 16.925 19.0931 17.288C14.4489 18.5546 9.55021 18.5546 4.90595 17.288C3.57512 16.925 2.99098 15.3649 3.75615 14.2172L4.90475 12.4943C5.45561 11.668 5.74955 10.6972 5.74955 9.7041V9Z" fill="#5D5D5D"/>
</svg>
