<svg width="20" height="20" viewBox="0 0 20 20" fill="none" xmlns="http://www.w3.org/2000/svg">
<path fill-rule="evenodd" clip-rule="evenodd" d="M5.83366 1.4585C6.17884 1.4585 6.45866 1.73832 6.45866 2.0835V2.7191C7.01035 2.70848 7.61816 2.70849 8.28664 2.7085H11.714C12.3825 2.70849 12.9903 2.70848 13.542 2.7191V2.0835C13.542 1.73832 13.8218 1.4585 14.167 1.4585C14.5122 1.4585 14.792 1.73832 14.792 2.0835V2.77274C15.0086 2.78925 15.2137 2.81001 15.4078 2.83611C16.3849 2.96746 17.1757 3.24423 17.7993 3.86787C18.4229 4.4915 18.6997 5.28229 18.831 6.25931C18.873 6.57155 18.9012 6.91232 18.9201 7.28356C18.945 7.35105 18.9587 7.42401 18.9587 7.50016C18.9587 7.55793 18.9508 7.61386 18.9361 7.66697C18.9587 8.33528 18.9587 9.09412 18.9587 9.95315V11.7138C18.9587 13.2453 18.9587 14.4583 18.831 15.4077C18.6997 16.3847 18.4229 17.1755 17.7993 17.7991C17.1757 18.4228 16.3849 18.6995 15.4078 18.8309C14.4585 18.9585 13.2455 18.9585 11.714 18.9585H8.28665C6.75518 18.9585 5.54215 18.9585 4.59281 18.8309C3.61579 18.6995 2.825 18.4228 2.20136 17.7991C1.57773 17.1755 1.30096 16.3847 1.1696 15.4077C1.04197 14.4583 1.04198 13.2453 1.04199 11.7138V9.95315C1.04199 9.09412 1.04198 8.33528 1.0645 7.66697C1.04983 7.61387 1.04199 7.55793 1.04199 7.50016C1.04199 7.42401 1.05561 7.35104 1.08055 7.28355C1.09945 6.91231 1.12763 6.57155 1.1696 6.25931C1.30096 5.28229 1.57773 4.4915 2.20136 3.86787C2.825 3.24423 3.61579 2.96746 4.59281 2.83611C4.78691 2.81001 4.99204 2.78925 5.20866 2.77274V2.0835C5.20866 1.73832 5.48848 1.4585 5.83366 1.4585ZM2.3029 8.12516C2.29226 8.6691 2.29199 9.28848 2.29199 10.0002V11.6668C2.29199 13.2558 2.29332 14.3847 2.40846 15.2411C2.52118 16.0795 2.73257 16.5626 3.08525 16.9152C3.43792 17.2679 3.92096 17.4793 4.75937 17.592C5.61575 17.7072 6.74464 17.7085 8.33366 17.7085H11.667C13.256 17.7085 14.3849 17.7072 15.2413 17.592C16.0797 17.4793 16.5627 17.2679 16.9154 16.9152C17.2681 16.5626 17.4795 16.0795 17.5922 15.2411C17.7073 14.3847 17.7087 13.2558 17.7087 11.6668V10.0002C17.7087 9.28848 17.7084 8.6691 17.6978 8.12516H2.3029ZM17.6406 6.87516H2.36006C2.37341 6.71734 2.38937 6.56786 2.40846 6.42587C2.52118 5.58746 2.73257 5.10442 3.08525 4.75175C3.43792 4.39907 3.92096 4.18768 4.75937 4.07496C5.61575 3.95982 6.74464 3.9585 8.33366 3.9585H11.667C13.256 3.9585 14.3849 3.95982 15.2413 4.07496C16.0797 4.18768 16.5627 4.39907 16.9154 4.75175C17.2681 5.10442 17.4795 5.58746 17.5922 6.42587C17.6113 6.56786 17.6272 6.71734 17.6406 6.87516Z" fill="#BBBBBB"/>
</svg>
