<svg width="20" height="20" viewBox="0 0 20 20" fill="none" xmlns="http://www.w3.org/2000/svg">
<path fill-rule="evenodd" clip-rule="evenodd" d="M5.83335 1.45825C6.17853 1.45825 6.45835 1.73807 6.45835 2.08325V2.71885C7.01005 2.70824 7.61786 2.70825 8.28634 2.70825H11.7137C12.3822 2.70825 12.99 2.70824 13.5417 2.71885V2.08325C13.5417 1.73807 13.8215 1.45825 14.1667 1.45825C14.5119 1.45825 14.7917 1.73807 14.7917 2.08325V2.77249C15.0083 2.78901 15.2134 2.80977 15.4075 2.83586C16.3846 2.96722 17.1754 3.24399 17.799 3.86762C18.4226 4.49126 18.6994 5.28205 18.8307 6.25907C18.8727 6.57131 18.9009 6.91207 18.9198 7.28331C18.9447 7.3508 18.9584 7.42376 18.9584 7.49992C18.9584 7.55769 18.9505 7.61362 18.9358 7.66672C18.9584 8.33504 18.9584 9.09388 18.9584 9.95291V11.7136C18.9584 13.2451 18.9584 14.4581 18.8307 15.4074C18.6994 16.3845 18.4226 17.1752 17.799 17.7989C17.1754 18.4225 16.3846 18.6993 15.4075 18.8306C14.4582 18.9583 13.2452 18.9583 11.7137 18.9583H8.28635C6.75488 18.9583 5.54185 18.9583 4.5925 18.8306C3.61548 18.6993 2.82469 18.4225 2.20106 17.7989C1.57742 17.1752 1.30066 16.3845 1.1693 15.4074C1.04166 14.4581 1.04167 13.2451 1.04169 11.7136V9.9529C1.04168 9.09388 1.04167 8.33504 1.06419 7.66673C1.04952 7.61362 1.04169 7.55769 1.04169 7.49992C1.04169 7.42377 1.05531 7.35079 1.08024 7.2833C1.09915 6.91207 1.12732 6.57131 1.1693 6.25907C1.30066 5.28205 1.57742 4.49126 2.20106 3.86762C2.82469 3.24398 3.61548 2.96722 4.5925 2.83586C4.78661 2.80977 4.99174 2.78901 5.20835 2.77249V2.08325C5.20835 1.73807 5.48818 1.45825 5.83335 1.45825ZM2.30259 8.12492C2.29195 8.66886 2.29169 9.28824 2.29169 9.99992V11.6666C2.29169 13.2556 2.29302 14.3845 2.40815 15.2409C2.52087 16.0793 2.73227 16.5623 3.08494 16.915C3.43762 17.2677 3.92065 17.4791 4.75906 17.5918C5.61545 17.7069 6.74434 17.7083 8.33335 17.7083H11.6667C13.2557 17.7083 14.3846 17.7069 15.241 17.5918C16.0794 17.4791 16.5624 17.2677 16.9151 16.915C17.2678 16.5623 17.4792 16.0793 17.5919 15.2409C17.707 14.3845 17.7084 13.2556 17.7084 11.6666V9.99992C17.7084 9.28824 17.7081 8.66886 17.6975 8.12492H2.30259ZM17.6403 6.87492H2.35976C2.3731 6.71709 2.38906 6.56761 2.40815 6.42563C2.52087 5.58722 2.73227 5.10418 3.08494 4.7515C3.43762 4.39883 3.92065 4.18744 4.75906 4.07472C5.61545 3.95958 6.74434 3.95825 8.33336 3.95825H11.6667C13.2557 3.95825 14.3846 3.95958 15.241 4.07472C16.0794 4.18744 16.5624 4.39883 16.9151 4.7515C17.2678 5.10418 17.4792 5.58722 17.5919 6.42563C17.611 6.56761 17.6269 6.71709 17.6403 6.87492Z" fill="#BBBBBB"/>
</svg>
