<svg width="20" height="20" viewBox="0 0 20 20" fill="none" xmlns="http://www.w3.org/2000/svg">
<path fill-rule="evenodd" clip-rule="evenodd" d="M12.2975 2.18438C13.8214 0.660546 16.292 0.660546 17.8158 2.18438C19.3396 3.70821 19.3396 6.17883 17.8158 7.70266L9.91138 15.6071C9.45978 16.0587 9.19394 16.3246 8.8982 16.5552C8.54962 16.8271 8.17245 17.0602 7.77338 17.2504C7.43479 17.4118 7.07811 17.5307 6.47219 17.7326L3.69625 18.6579L3.02785 18.8807C2.48572 19.0614 1.88801 18.9203 1.48393 18.5163C1.07984 18.1122 0.938744 17.5145 1.11946 16.9723L2.26756 13.528C2.46951 12.9221 2.58839 12.5654 2.74976 12.2268C2.93995 11.8277 3.17305 11.4506 3.44494 11.102C3.67562 10.8062 3.94148 10.5404 4.39313 10.0888L12.2975 2.18438ZM3.66742 17.3499L6.03535 16.5606C6.69461 16.3409 6.97472 16.2463 7.2356 16.122C7.55272 15.9709 7.85243 15.7857 8.12943 15.5696C8.3573 15.3919 8.5671 15.1836 9.05849 14.6922L15.3664 8.38431C14.7092 8.15251 13.8625 7.72286 13.0699 6.93026C12.2773 6.13766 11.8477 5.291 11.6159 4.63379L5.30797 10.9417C4.81659 11.4331 4.60832 11.6429 4.43058 11.8708C4.21453 12.1477 4.0293 12.4475 3.87816 12.7646C3.75383 13.0255 3.65932 13.3056 3.43957 13.9648L2.65026 16.3328L3.66742 17.3499ZM12.6298 3.61987C12.6583 3.76567 12.7065 3.96387 12.7868 4.19557C12.9678 4.71719 13.3097 5.40224 13.9538 6.04638C14.5979 6.69051 15.283 7.03236 15.8046 7.21334C16.0363 7.29372 16.2345 7.34189 16.3803 7.37039L16.9319 6.81877C17.9676 5.7831 17.9676 4.10394 16.9319 3.06826C15.8962 2.03258 14.2171 2.03258 13.1814 3.06826L12.6298 3.61987Z" fill="#BBBBBB"/>
</svg>
