<svg width="174" height="64" viewBox="0 0 174 64" fill="none" xmlns="http://www.w3.org/2000/svg">
<path d="M1.11262 37.4077C1.83736 36.7413 2.73562 36.4133 3.80742 36.4133C4.14426 36.4133 4.72609 36.4953 5.53249 36.6695C7.07383 37.0181 9.11534 37.2949 11.6876 37.5102C14.2497 37.7255 17.0058 37.828 19.9558 37.828C22.9057 37.828 25.6924 37.6332 28.4484 37.2539C31.2045 36.8643 33.542 36.3518 35.461 35.7059C36.4818 35.3676 37.2984 35.1933 37.8904 35.1933C38.9622 35.1933 39.8298 35.5111 40.5138 36.157C41.1977 36.8028 41.5345 37.6537 41.5345 38.7301C41.5345 39.54 41.2385 40.2781 40.6362 40.9137C40.034 41.5595 39.2072 42.0721 38.1354 42.4616C34.5015 43.8353 29.8265 44.6965 24.1 45.0348V59.8276C24.1 61.0681 23.6509 62.0317 22.7526 62.7186C21.8544 63.4054 20.8744 63.7437 19.8026 63.7437C18.7308 63.7437 17.7509 63.4054 16.8527 62.7186C15.9544 62.0317 15.5053 61.0681 15.5053 59.8276V45.0963C10.1667 44.881 5.98162 44.3684 2.94998 43.5483C2.09255 43.333 1.38823 42.9127 0.837019 42.2976C0.285811 41.6723 0 40.9342 0 40.073C0 38.9556 0.367472 38.0638 1.09221 37.4077H1.11262ZM4.88941 9.45187C6.37972 7.09403 8.44164 5.23851 11.0752 3.88531C13.7087 2.53212 16.6587 1.85552 19.9455 1.85552C23.2324 1.85552 26.1926 2.53212 28.8159 3.88531C31.4392 5.23851 33.5012 7.09403 35.0017 9.45187C36.492 11.8097 37.2473 14.4751 37.2473 17.4275C37.2473 20.3799 36.5022 23.0453 35.0017 25.4032C33.5012 27.761 31.4495 29.6165 28.8159 30.9697C26.1926 32.3229 23.2324 32.9995 19.9455 32.9995C16.6587 32.9995 13.6985 32.3229 11.0752 30.9697C8.45185 29.6165 6.38992 27.761 4.88941 25.4032C3.38891 23.0453 2.64375 20.3799 2.64375 17.4275C2.64375 14.4751 3.38891 11.8097 4.88941 9.45187ZM13.6373 23.4144C15.3215 24.9111 17.4243 25.6697 19.9455 25.6697C22.4668 25.6697 24.5696 24.9214 26.2538 23.4144C27.9381 21.9177 28.7853 19.9186 28.7853 17.4275C28.7853 14.9364 27.9381 12.9476 26.2538 11.4407C24.5696 9.94394 22.4668 9.18533 19.9455 9.18533C17.4243 9.18533 15.3215 9.93369 13.6373 11.4407C11.953 12.9374 11.1058 14.9364 11.1058 17.4275C11.1058 19.9186 11.953 21.9074 13.6373 23.4144ZM45.5665 1.02515C46.4648 0.338299 47.4447 0 48.5165 0C49.5883 0 50.5682 0.338299 51.4665 1.02515C52.3647 1.712 52.8139 2.67564 52.8139 3.91607V60.0839C52.8139 61.3244 52.3647 62.288 51.4665 62.9748C50.5682 63.6617 49.5883 64 48.5165 64C47.4447 64 46.4648 63.6617 45.5665 62.9748C44.6682 62.288 44.2191 61.3244 44.2191 60.0839V3.92632C44.2191 2.68589 44.6682 1.72225 45.5665 1.0354V1.02515Z" fill="#78CA94"/>
<path d="M63.1539 21.8459C64.0318 21.0975 65.1954 20.7182 66.6449 20.7182H83.0484V11.5227H64.6646C63.3785 11.5227 62.4802 11.1639 61.9392 10.4565C61.4084 9.74916 61.1328 8.85728 61.1328 7.79113C61.1328 6.72497 61.3982 5.8946 61.9392 5.18725C62.47 4.4799 63.3785 4.1211 64.6646 4.1211H86.764C88.2134 4.1211 89.3771 4.5004 90.2549 5.24876C91.1328 5.99712 91.5717 7.02227 91.5717 8.3037V24.3268C91.5717 25.3519 91.1634 26.213 90.357 26.8999C89.5506 27.5867 88.5401 27.925 87.3458 27.925H70.3706V38.2175C70.3706 38.6071 70.585 38.8429 71.0137 38.9249C72.2897 39.0992 74.7088 39.1812 78.2509 39.1812C79.8739 39.1812 81.9868 39.0479 84.5898 38.7916C87.1927 38.5353 89.4996 38.1458 91.5105 37.6332C92.3679 37.4589 92.9395 37.3769 93.2355 37.3769C94.2155 37.3769 95.0321 37.7562 95.6649 38.5046C96.308 39.2529 96.6245 40.1243 96.6245 41.1084C96.6245 42.9537 95.6241 44.1531 93.6132 44.7067C91.439 45.3116 88.8463 45.7626 85.8657 46.0599C82.8749 46.3572 80.3332 46.511 78.2407 46.511C75.9746 46.511 73.8718 46.4392 71.9324 46.2854C69.993 46.1317 68.1658 45.8241 66.4509 45.3526C64.7871 44.881 63.603 44.1019 62.8987 43.005C62.1944 41.9081 61.8371 40.5651 61.8371 38.9864V24.9009C61.8371 23.6092 62.2761 22.5943 63.1539 21.8459ZM103.862 1.02515C104.76 0.338299 105.74 0 106.812 0C107.883 0 108.863 0.338299 109.762 1.02515C110.66 1.712 111.109 2.67564 111.109 3.91607V60.0839C111.109 61.3244 110.66 62.288 109.762 62.9748C108.863 63.6617 107.883 64 106.812 64C105.74 64 104.76 63.6617 103.862 62.9748C102.963 62.288 102.514 61.3244 102.514 60.0839V3.92632C102.514 2.68589 102.963 1.72225 103.862 1.0354V1.02515Z" fill="#78CA94"/>
<path d="M119.686 53.5952C118.665 53.3389 117.889 52.8673 117.379 52.1805C116.868 51.4936 116.613 50.7452 116.613 49.9251C116.613 48.941 116.95 48.0696 117.634 47.3213C118.318 46.5729 119.196 46.1936 120.257 46.1936C120.645 46.1936 121.023 46.2551 121.411 46.3884C128.628 48.2746 136.589 49.2178 145.307 49.2178C154.024 49.2178 161.986 48.2746 169.203 46.3884C169.458 46.3064 169.846 46.2654 170.356 46.2654C171.428 46.2654 172.295 46.6344 172.979 47.3623C173.663 48.0901 174 48.9512 174 49.9354C174 50.7452 173.745 51.5039 173.235 52.1907C172.724 52.8776 171.959 53.3491 170.928 53.6054C163.537 55.666 154.994 56.6911 145.307 56.6911C135.62 56.6911 127.066 55.666 119.686 53.6054V53.5952ZM125.678 4.76735C126.515 4.12151 127.505 3.80371 128.658 3.80371C129.812 3.80371 130.802 4.12151 131.639 4.76735C132.476 5.41319 132.884 6.31532 132.884 7.47374V13.9117H157.739V7.47374C157.739 6.31532 158.158 5.41319 158.985 4.76735C159.822 4.12151 160.812 3.80371 161.965 3.80371C163.119 3.80371 164.109 4.12151 164.946 4.76735C165.783 5.41319 166.191 6.31532 166.191 7.47374V29.7297C166.191 31.2264 165.967 32.3746 165.518 33.1742C165.069 33.9636 164.272 34.6402 163.119 35.204C161.843 35.8088 159.536 36.3419 156.198 36.8135C152.87 37.285 149.237 37.5208 145.307 37.5208C141.377 37.5208 137.814 37.2953 134.476 36.8442C131.149 36.3932 128.862 35.8703 127.617 35.2655C126.423 34.7119 125.586 34.0251 125.116 33.205C124.647 32.3951 124.412 31.2367 124.412 29.7297V7.46349C124.412 6.30507 124.83 5.40294 125.657 4.7571L125.678 4.76735ZM133.394 29.0224C134.293 29.2786 135.895 29.5349 138.202 29.7912C140.509 30.0475 142.877 30.1808 145.317 30.1808C147.757 30.1808 150.125 30.0475 152.432 29.7912C154.738 29.5349 156.341 29.2786 157.239 29.0224C157.576 28.9403 157.75 28.7251 157.75 28.3765V21.0467H132.894V28.5098C132.894 28.7661 133.068 28.9403 133.405 29.0224H133.394Z" fill="#78CA94"/>
</svg>
