<svg width="40" height="40" viewBox="0 0 40 40" fill="none" xmlns="http://www.w3.org/2000/svg">
<g clip-path="url(#clip0_93_24223)">
<path fill-rule="evenodd" clip-rule="evenodd" d="M19.5832 2.08301C15.2109 2.08301 11.6665 5.62742 11.6665 9.99967C11.6665 14.3719 15.2109 17.9163 19.5832 17.9163C23.9554 17.9163 27.4998 14.3719 27.4998 9.99967C27.4998 5.62742 23.9554 2.08301 19.5832 2.08301ZM14.1665 9.99967C14.1665 7.00813 16.5916 4.58301 19.5832 4.58301C22.5747 4.58301 24.9998 7.00813 24.9998 9.99967C24.9998 12.9912 22.5747 15.4163 19.5832 15.4163C16.5916 15.4163 14.1665 12.9912 14.1665 9.99967Z" fill="#5D5D5D"/>
<path fill-rule="evenodd" clip-rule="evenodd" d="M10.7134 22.5337C13.0457 21.2009 16.1843 20.4163 19.5832 20.4163C22.9821 20.4163 26.1206 21.2009 28.4529 22.5337C30.7498 23.8462 32.4998 25.8499 32.4998 28.333C32.4998 30.8161 30.7498 32.8198 28.4529 34.1324C26.1206 35.4651 22.9821 36.2497 19.5832 36.2497C16.1843 36.2497 13.0457 35.4651 10.7134 34.1324C8.4165 32.8198 6.6665 30.8161 6.6665 28.333C6.6665 25.8499 8.4165 23.8462 10.7134 22.5337ZM11.9538 24.7043C10.0282 25.8046 9.1665 27.1342 9.1665 28.333C9.1665 29.5318 10.0282 30.8614 11.9538 31.9617C13.844 33.0419 16.5387 33.7497 19.5832 33.7497C22.6276 33.7497 25.3224 33.0419 27.2126 31.9617C29.1382 30.8614 29.9998 29.5318 29.9998 28.333C29.9998 27.1342 29.1382 25.8046 27.2126 24.7043C25.3224 23.6241 22.6276 22.9163 19.5832 22.9163C16.5387 22.9163 13.844 23.6241 11.9538 24.7043Z" fill="#5D5D5D"/>
</g>
<defs>
<clipPath id="clip0_93_24223">
<rect width="40" height="40" fill="white"/>
</clipPath>
</defs>
</svg>
