<svg width="36" height="36" viewBox="0 0 36 36" fill="none" xmlns="http://www.w3.org/2000/svg">
<circle cx="17.9995" cy="18" r="17.85" fill="white" stroke="#DDDDDD" stroke-width="0.3"/>
<g clip-path="url(#clip0_126_8556)">
<path fill-rule="evenodd" clip-rule="evenodd" d="M17.8492 11.5498C16.2752 11.5498 14.9992 12.8258 14.9992 14.3998C14.9992 15.9738 16.2752 17.2498 17.8492 17.2498C19.4232 17.2498 20.6992 15.9738 20.6992 14.3998C20.6992 12.8258 19.4232 11.5498 17.8492 11.5498ZM15.8992 14.3998C15.8992 13.3228 16.7723 12.4498 17.8492 12.4498C18.9262 12.4498 19.7992 13.3228 19.7992 14.3998C19.7992 15.4768 18.9262 16.3498 17.8492 16.3498C16.7723 16.3498 15.8992 15.4768 15.8992 14.3998Z" fill="#5D5D5D"/>
<path fill-rule="evenodd" clip-rule="evenodd" d="M14.6561 18.912C15.4957 18.4323 16.6256 18.1498 17.8492 18.1498C19.0728 18.1498 20.2027 18.4323 21.0423 18.912C21.8692 19.3845 22.4992 20.1059 22.4992 20.9998C22.4992 21.8937 21.8692 22.6151 21.0423 23.0876C20.2027 23.5674 19.0728 23.8498 17.8492 23.8498C16.6256 23.8498 15.4957 23.5674 14.6561 23.0876C13.8292 22.6151 13.1992 21.8937 13.1992 20.9998C13.1992 20.1059 13.8292 19.3845 14.6561 18.912ZM15.1026 19.6935C14.4094 20.0896 14.0992 20.5682 14.0992 20.9998C14.0992 21.4314 14.4094 21.91 15.1026 22.3062C15.7831 22.695 16.7532 22.9498 17.8492 22.9498C18.9452 22.9498 19.9153 22.695 20.5958 22.3062C21.289 21.91 21.5992 21.4314 21.5992 20.9998C21.5992 20.5682 21.289 20.0896 20.5958 19.6935C19.9153 19.3046 18.9452 19.0498 17.8492 19.0498C16.7532 19.0498 15.7831 19.3046 15.1026 19.6935Z" fill="#5D5D5D"/>
</g>
<defs>
<clipPath id="clip0_126_8556">
<rect width="14.4" height="14.4" fill="white" transform="translate(10.7993 10.7998)"/>
</clipPath>
</defs>
</svg>
