<svg width="18" height="18" viewBox="0 0 18 18" fill="none" xmlns="http://www.w3.org/2000/svg">
<path fill-rule="evenodd" clip-rule="evenodd" d="M9.10517 3.68209C8.56949 3.94231 7.89068 4.38848 6.92332 5.0263L6.75912 5.13456C6.74662 5.1428 6.73429 5.15094 6.72212 5.15897C6.43697 5.34706 6.23948 5.47733 6.02308 5.57284C5.80981 5.66696 5.58567 5.7342 5.35581 5.77302C5.12257 5.8124 4.88598 5.81236 4.54438 5.81229C4.5298 5.81228 4.51503 5.81228 4.50006 5.81228C3.41731 5.81228 3.05184 5.82449 2.7411 5.96825C2.44083 6.10718 2.12103 6.40808 1.9641 6.69934C1.80039 7.00318 1.77034 7.31457 1.71255 8.2627C1.69669 8.52293 1.6875 8.77236 1.6875 8.99978C1.6875 9.2272 1.69669 9.47663 1.71255 9.73686C1.77034 10.685 1.80039 10.9964 1.9641 11.3002C2.12103 11.5915 2.44083 11.8924 2.7411 12.0313C3.05184 12.1751 3.41731 12.1873 4.50006 12.1873C4.51503 12.1873 4.5298 12.1873 4.54438 12.1873C4.88598 12.1872 5.12257 12.1872 5.35581 12.2265C5.58567 12.2654 5.80981 12.3326 6.02308 12.4267C6.23948 12.5222 6.43697 12.6525 6.72211 12.8406C6.73429 12.8486 6.74662 12.8568 6.75912 12.865L6.92332 12.9733C7.89067 13.6111 8.56949 14.0572 9.10517 14.3175C9.63939 14.577 9.9065 14.5874 10.0934 14.5236C10.1964 14.4884 10.2973 14.4371 10.3863 14.3745C10.5488 14.2603 10.697 14.0394 10.8011 13.4609C10.9058 12.8797 10.9443 12.0758 10.9976 10.9277C11.0367 10.088 11.0625 9.38361 11.0625 8.99978C11.0625 8.61595 11.0367 7.91152 10.9976 7.07185C10.9443 5.92379 10.9058 5.11983 10.8011 4.53867C10.697 3.96015 10.5488 3.73922 10.3863 3.62503C10.2973 3.56243 10.1964 3.51111 10.0934 3.47595C9.9065 3.41217 9.63939 3.42258 9.10517 3.68209ZM8.6136 2.67017C9.23313 2.36922 9.84308 2.20183 10.4567 2.41124C10.6606 2.48082 10.8569 2.58071 11.0332 2.7046C11.5628 3.07675 11.7869 3.66476 11.9083 4.33935C12.0277 5.00261 12.0686 5.88158 12.1194 6.9765L12.1214 7.01963C12.1603 7.85585 12.1875 8.58578 12.1875 8.99978C12.1875 9.41378 12.1603 10.1437 12.1214 10.9799L12.1194 11.0231C12.0686 12.118 12.0277 12.9969 11.9083 13.6602C11.7869 14.3348 11.5628 14.9228 11.0332 15.295C10.8569 15.4188 10.6606 15.5187 10.4567 15.5883C9.84308 15.7977 9.23313 15.6303 8.6136 15.3294C8.00344 15.033 7.2631 14.5448 6.33995 13.9361L6.13986 13.8042C5.80392 13.5827 5.68836 13.5087 5.56885 13.4559C5.44089 13.3995 5.3064 13.3591 5.16849 13.3358C5.03967 13.3141 4.90245 13.3123 4.50006 13.3123C4.45927 13.3123 4.41902 13.3123 4.3793 13.3123C3.46661 13.3128 2.83244 13.3131 2.26872 13.0523C1.74762 12.8112 1.24606 12.3393 0.973711 11.8338C0.679247 11.2873 0.644695 10.7158 0.595566 9.90315C0.593617 9.87092 0.591645 9.83831 0.589634 9.8053C0.5728 9.52911 0.5625 9.25596 0.5625 8.99978C0.5625 8.7436 0.5728 8.47045 0.589634 8.19426C0.591645 8.16125 0.593617 8.12864 0.595566 8.09641C0.644695 7.28376 0.679247 6.71223 0.973711 6.16572C1.24606 5.66025 1.74762 5.18833 2.26872 4.94724C2.83244 4.68642 3.46661 4.68676 4.3793 4.68724C4.41902 4.68726 4.45927 4.68728 4.50006 4.68728C4.90245 4.68728 5.03967 4.68547 5.16849 4.66372C5.3064 4.64043 5.44089 4.60009 5.56885 4.54361C5.68836 4.49087 5.80392 4.41684 6.13986 4.19534L6.33996 4.06341C7.26311 3.45472 8.00344 2.96658 8.6136 2.67017Z" fill="currentColor"/>
<path d="M13.9923 6.47759C13.8414 6.20602 13.4984 6.1072 13.2268 6.25807C12.9576 6.40765 12.8591 6.74558 13.0045 7.01602C13.0096 7.02681 13.0232 7.05603 13.0363 7.08877C13.0625 7.15417 13.1018 7.26466 13.1426 7.42387C13.2242 7.74191 13.3125 8.25737 13.3125 8.99978C13.3125 9.74219 13.2242 10.2576 13.1426 10.5757C13.1018 10.7349 13.0625 10.8454 13.0363 10.9108L13.0045 10.9835C12.8591 11.254 12.9576 11.5919 13.2268 11.7415C13.4984 11.8924 13.8533 11.7711 14.0042 11.4995C14.0096 11.489 14.0163 11.4757 14.024 11.4595C14.0393 11.4273 14.0588 11.3838 14.0809 11.3286C14.125 11.2182 14.1794 11.0615 14.2324 10.8551C14.3383 10.4419 14.4375 9.83237 14.4375 8.99978C14.4375 8.16719 14.3383 7.55765 14.2324 7.14444C14.1794 6.93803 14.125 6.78132 14.0809 6.67095C14.0588 6.61579 14.0393 6.57229 14.024 6.54002C14.0163 6.52389 13.9977 6.48814 13.9923 6.47759Z" fill="currentColor"/>
</svg>
