<svg width="18" height="18" viewBox="0 0 18 18" fill="none" xmlns="http://www.w3.org/2000/svg">
<g clip-path="url(#clip0_1_1615)">
<path fill-rule="evenodd" clip-rule="evenodd" d="M8.211 0.937501H9.789C10.4629 0.937479 11.0248 0.93746 11.4709 0.997435C11.9417 1.06074 12.3668 1.19999 12.7084 1.54159C13.05 1.8832 13.1893 2.3083 13.2526 2.77914C13.3125 3.22523 13.3125 3.78715 13.3125 4.46101L13.3125 5.43754C13.7449 5.43788 14.1114 5.44118 14.4142 5.47199C14.7693 5.50811 15.0989 5.58665 15.3959 5.7851C15.6211 5.93557 15.8144 6.12894 15.9649 6.35414C16.1634 6.65114 16.2419 6.98066 16.278 7.33577C16.3125 7.67502 16.3125 8.09407 16.3125 8.59626V15.9375H16.5C16.8107 15.9375 17.0625 16.1893 17.0625 16.5C17.0625 16.8107 16.8107 17.0625 16.5 17.0625H1.5C1.18934 17.0625 0.9375 16.8107 0.9375 16.5C0.9375 16.1893 1.18934 15.9375 1.5 15.9375H1.6875L1.6875 8.59624C1.68749 8.09406 1.68748 7.67502 1.72199 7.33577C1.75811 6.98066 1.83665 6.65114 2.03509 6.35414C2.18557 6.12893 2.37893 5.93557 2.60414 5.7851C2.90113 5.58665 3.23066 5.50811 3.58577 5.47199C3.88862 5.44118 4.25507 5.43788 4.6875 5.43754L4.6875 4.46101C4.68748 3.78715 4.68746 3.22523 4.74743 2.77914C4.81074 2.3083 4.94999 1.8832 5.29159 1.54159C5.63319 1.19999 6.0583 1.06074 6.52914 0.997435C6.97523 0.93746 7.53714 0.937479 8.211 0.937501ZM4.6875 6.56258C4.25056 6.56307 3.94189 6.56657 3.69962 6.59121C3.43347 6.61829 3.31049 6.66615 3.22915 6.7205C3.12679 6.7889 3.0389 6.87679 2.9705 6.97916C2.91615 7.06049 2.86829 7.18347 2.84121 7.44962C2.81318 7.72518 2.8125 8.08662 2.8125 8.625V15.9375H4.6875V6.56258ZM5.8125 15.9375H8.4375V14.25C8.4375 13.9393 8.68934 13.6875 9 13.6875C9.31066 13.6875 9.5625 13.9393 9.5625 14.25V15.9375H12.1875V4.5C12.1875 3.77699 12.1863 3.29132 12.1376 2.92905C12.0911 2.58295 12.0107 2.43483 11.9129 2.33709C11.8152 2.23935 11.6671 2.15893 11.321 2.1124C10.9587 2.0637 10.473 2.0625 9.75 2.0625H8.25C7.52699 2.0625 7.04132 2.0637 6.67904 2.1124C6.33295 2.15893 6.18482 2.23935 6.08709 2.33709C5.98935 2.43483 5.90893 2.58295 5.8624 2.92905C5.81369 3.29132 5.8125 3.77699 5.8125 4.5V15.9375ZM13.3125 15.9375H15.1875V8.625C15.1875 8.08662 15.1868 7.72518 15.1588 7.44962C15.1317 7.18347 15.0839 7.06049 15.0295 6.97916C14.9611 6.87679 14.8732 6.7889 14.7708 6.7205C14.6895 6.66615 14.5665 6.61829 14.3004 6.59121C14.0581 6.56657 13.7494 6.56307 13.3125 6.56258V15.9375ZM6.9375 3.75C6.9375 3.43934 7.18934 3.1875 7.5 3.1875H10.5C10.8107 3.1875 11.0625 3.43934 11.0625 3.75C11.0625 4.06066 10.8107 4.3125 10.5 4.3125H7.5C7.18934 4.3125 6.9375 4.06066 6.9375 3.75ZM6.9375 6C6.9375 5.68934 7.18934 5.4375 7.5 5.4375H10.5C10.8107 5.4375 11.0625 5.68934 11.0625 6C11.0625 6.31066 10.8107 6.5625 10.5 6.5625H7.5C7.18934 6.5625 6.9375 6.31066 6.9375 6ZM6.9375 8.25C6.9375 7.93934 7.18934 7.6875 7.5 7.6875H10.5C10.8107 7.6875 11.0625 7.93934 11.0625 8.25C11.0625 8.56066 10.8107 8.8125 10.5 8.8125H7.5C7.18934 8.8125 6.9375 8.56066 6.9375 8.25ZM6.9375 10.5C6.9375 10.1893 7.18934 9.9375 7.5 9.9375H10.5C10.8107 9.9375 11.0625 10.1893 11.0625 10.5C11.0625 10.8107 10.8107 11.0625 10.5 11.0625H7.5C7.18934 11.0625 6.9375 10.8107 6.9375 10.5Z" fill="currentColor"/>
</g>
<defs>
<clipPath id="clip0_1_1615">
<rect width="18" height="18" rx="3" fill="white"/>
</clipPath>
</defs>
</svg>
