<svg width="18" height="18" viewBox="0 0 18 18" fill="none" xmlns="http://www.w3.org/2000/svg">
<path fill-rule="evenodd" clip-rule="evenodd" d="M6.75 4.6875C5.61091 4.6875 4.6875 5.61091 4.6875 6.75C4.6875 7.88909 5.61091 8.8125 6.75 8.8125C7.88909 8.8125 8.8125 7.88909 8.8125 6.75C8.8125 5.61091 7.88909 4.6875 6.75 4.6875ZM5.8125 6.75C5.8125 6.23223 6.23223 5.8125 6.75 5.8125C7.26777 5.8125 7.6875 6.23223 7.6875 6.75C7.6875 7.26777 7.26777 7.6875 6.75 7.6875C6.23223 7.6875 5.8125 7.26777 5.8125 6.75Z" fill="currentColor"/>
<path fill-rule="evenodd" clip-rule="evenodd" d="M6.75 9.1875C5.85318 9.1875 5.01346 9.36806 4.37712 9.68622C3.77443 9.98757 3.1875 10.5079 3.1875 11.25L3.18741 11.2969C3.18625 11.6796 3.18432 12.3241 3.79517 12.7663C4.07864 12.9715 4.45267 13.1024 4.91602 13.1857C5.38365 13.2699 5.98291 13.3125 6.75 13.3125C7.51709 13.3125 8.11635 13.2699 8.58398 13.1857C9.04733 13.1024 9.42136 12.9715 9.70483 12.7663C10.3157 12.3241 10.3137 11.6796 10.3126 11.2969L10.3125 11.25C10.3125 10.5079 9.72557 9.98757 9.12288 9.68622C8.48654 9.36806 7.64682 9.1875 6.75 9.1875ZM4.3125 11.25C4.3125 11.1636 4.39714 10.934 4.88024 10.6925C5.32969 10.4677 5.98996 10.3125 6.75 10.3125C7.51004 10.3125 8.17031 10.4677 8.61976 10.6925C9.10286 10.934 9.1875 11.1636 9.1875 11.25C9.1875 11.7033 9.15864 11.7729 9.04517 11.855C8.95364 11.9213 8.76517 12.0101 8.38477 12.0785C8.00865 12.1462 7.48291 12.1875 6.75 12.1875C6.01709 12.1875 5.49135 12.1462 5.11523 12.0785C4.73483 12.0101 4.54636 11.9213 4.45483 11.855C4.34137 11.7729 4.3125 11.7033 4.3125 11.25Z" fill="currentColor"/>
<path d="M14.25 9.5625C14.5607 9.5625 14.8125 9.31066 14.8125 9C14.8125 8.68934 14.5607 8.4375 14.25 8.4375H11.25C10.9393 8.4375 10.6875 8.68934 10.6875 9C10.6875 9.31066 10.9393 9.5625 11.25 9.5625H14.25Z" fill="currentColor"/>
<path d="M14.8125 6.75C14.8125 7.06066 14.5607 7.3125 14.25 7.3125H10.5C10.1893 7.3125 9.9375 7.06066 9.9375 6.75C9.9375 6.43934 10.1893 6.1875 10.5 6.1875H14.25C14.5607 6.1875 14.8125 6.43934 14.8125 6.75Z" fill="currentColor"/>
<path d="M14.25 11.8125C14.5607 11.8125 14.8125 11.5607 14.8125 11.25C14.8125 10.9393 14.5607 10.6875 14.25 10.6875H12C11.6893 10.6875 11.4375 10.9393 11.4375 11.25C11.4375 11.5607 11.6893 11.8125 12 11.8125H14.25Z" fill="currentColor"/>
<path fill-rule="evenodd" clip-rule="evenodd" d="M7.45769 2.4375H10.5423C11.9206 2.43749 13.0124 2.43748 13.8668 2.55235C14.7461 2.67057 15.4578 2.91966 16.0191 3.48093C16.5803 4.04221 16.8294 4.75392 16.9476 5.63323C17.0625 6.48764 17.0625 7.57935 17.0625 8.95766V9.04231C17.0625 10.4206 17.0625 11.5124 16.9476 12.3668C16.8294 13.2461 16.5803 13.9578 16.0191 14.5191C15.4578 15.0803 14.7461 15.3294 13.8668 15.4476C13.0124 15.5625 11.9207 15.5625 10.5423 15.5625H7.45769C6.07939 15.5625 4.98764 15.5625 4.13323 15.4476C3.25392 15.3294 2.54221 15.0803 1.98093 14.5191C1.41966 13.9578 1.17057 13.2461 1.05235 12.3668C0.937479 11.5124 0.937489 10.4206 0.9375 9.04232V8.95769C0.937489 7.57937 0.937479 6.48764 1.05235 5.63323C1.17057 4.75392 1.41966 4.04221 1.98093 3.48093C2.54221 2.91966 3.25392 2.67057 4.13323 2.55235C4.98764 2.43748 6.07937 2.43749 7.45769 2.4375ZM4.28314 3.66732C3.52857 3.76877 3.09384 3.95902 2.77643 4.27643C2.45902 4.59384 2.26877 5.02857 2.16732 5.78314C2.0637 6.55389 2.0625 7.56989 2.0625 9C2.0625 10.4301 2.0637 11.4461 2.16732 12.2169C2.26877 12.9714 2.45902 13.4062 2.77643 13.7236C3.09384 14.041 3.52857 14.2312 4.28314 14.3327C5.05389 14.4363 6.06989 14.4375 7.5 14.4375H10.5C11.9301 14.4375 12.9461 14.4363 13.7169 14.3327C14.4714 14.2312 14.9062 14.041 15.2236 13.7236C15.541 13.4062 15.7312 12.9714 15.8327 12.2169C15.9363 11.4461 15.9375 10.4301 15.9375 9C15.9375 7.56989 15.9363 6.55389 15.8327 5.78314C15.7312 5.02857 15.541 4.59384 15.2236 4.27643C14.9062 3.95902 14.4714 3.76877 13.7169 3.66732C12.9461 3.5637 11.9301 3.5625 10.5 3.5625H7.5C6.06989 3.5625 5.05389 3.5637 4.28314 3.66732Z" fill="currentColor"/>
</svg>
