<svg width="18" height="18" viewBox="0 0 18 18" fill="none" xmlns="http://www.w3.org/2000/svg">
<g clip-path="url(#clip0_1_1607)">
<path fill-rule="evenodd" clip-rule="evenodd" d="M6.1875 6.75C6.1875 5.1967 7.4467 3.9375 9 3.9375C10.5533 3.9375 11.8125 5.1967 11.8125 6.75C11.8125 8.3033 10.5533 9.5625 9 9.5625C7.4467 9.5625 6.1875 8.3033 6.1875 6.75ZM9 5.0625C8.06802 5.0625 7.3125 5.81802 7.3125 6.75C7.3125 7.68198 8.06802 8.4375 9 8.4375C9.93198 8.4375 10.6875 7.68198 10.6875 6.75C10.6875 5.81802 9.93198 5.0625 9 5.0625Z" fill="currentColor"/>
<path fill-rule="evenodd" clip-rule="evenodd" d="M0.9375 9C0.9375 4.5472 4.5472 0.9375 9 0.9375C13.4528 0.9375 17.0625 4.5472 17.0625 9C17.0625 13.4528 13.4528 17.0625 9 17.0625C4.5472 17.0625 0.9375 13.4528 0.9375 9ZM9 2.0625C5.16852 2.0625 2.0625 5.16852 2.0625 9C2.0625 10.9092 2.8337 12.6382 4.08158 13.8927C4.21687 13.1628 4.48271 12.4747 5.01628 11.9213C5.81439 11.0936 7.09062 10.6875 8.99996 10.6875C10.9093 10.6875 12.1855 11.0936 12.9836 11.9213C13.5172 12.4747 13.7831 13.1628 13.9184 13.8927C15.1663 12.6383 15.9375 10.9092 15.9375 9C15.9375 5.16852 12.8315 2.0625 9 2.0625ZM12.8953 14.7415C12.8188 13.8326 12.6215 13.1665 12.1738 12.7022C11.6867 12.1971 10.7842 11.8125 8.99996 11.8125C7.21575 11.8125 6.31321 12.1971 5.82611 12.7022C5.37845 13.1665 5.18108 13.8326 5.10467 14.7415C6.21513 15.4964 7.55605 15.9375 9 15.9375C10.4439 15.9375 11.7848 15.4964 12.8953 14.7415Z" fill="currentColor"/>
</g>
<defs>
<clipPath id="clip0_1_1607">
<rect width="18" height="18" fill="white"/>
</clipPath>
</defs>
</svg>
