<svg width="18" height="18" viewBox="0 0 18 18" fill="none" xmlns="http://www.w3.org/2000/svg">
<path fill-rule="evenodd" clip-rule="evenodd" d="M12.2954 1.51591L12.3453 1.52928C13.1698 1.7502 13.8232 1.92528 14.3372 2.11093C14.8629 2.30084 15.2916 2.51808 15.6447 2.84885C16.159 3.33051 16.5189 3.95384 16.6789 4.64003C16.7888 5.11127 16.7625 5.59115 16.6642 6.14137C16.568 6.6793 16.3929 7.33273 16.1719 8.15729L15.7703 9.65602C15.5494 10.4805 15.3744 11.1339 15.1887 11.6478C14.9988 12.1735 14.7816 12.6022 14.4508 12.9554C13.9844 13.4533 13.3853 13.8065 12.7249 13.9737C12.532 14.416 12.2502 14.8165 11.8947 15.1494C11.5416 15.4802 11.1129 15.6975 10.5872 15.8874C10.0733 16.073 9.41986 16.2481 8.59535 16.469L8.54552 16.4824C7.72096 16.7033 7.06753 16.8784 6.5296 16.9746C5.97937 17.073 5.4995 17.0992 5.02826 16.9893C4.34207 16.8293 3.71874 16.4694 3.23708 15.9552C2.90631 15.602 2.68907 15.1733 2.49916 14.6476C2.31351 14.1337 2.13843 13.4803 1.9175 12.6557L1.51592 11.157C1.29498 10.3325 1.1199 9.67906 1.02371 9.14115C0.925319 8.59092 0.899108 8.11104 1.00898 7.63981C1.16898 6.95362 1.52886 6.33028 2.04312 5.84863C2.39629 5.51785 2.82498 5.30061 3.35068 5.11071C3.86462 4.92505 4.51803 4.74998 5.34256 4.52905L5.36749 4.52237C5.56584 4.46922 5.75351 4.41902 5.93119 4.37208C6.2249 3.32273 6.48336 2.58094 6.98708 2.04312C7.46874 1.52886 8.09207 1.16898 8.77826 1.00898C9.2495 0.899108 9.72937 0.925319 10.2796 1.02371C10.8175 1.1199 11.4709 1.29498 12.2954 1.51591ZM5.59126 5.6271C4.7716 5.84678 4.18429 6.00573 3.7329 6.16879C3.27584 6.3339 3.00747 6.4868 2.81217 6.66972C2.4603 6.99928 2.21407 7.42577 2.1046 7.89527C2.04383 8.15586 2.0456 8.46473 2.13114 8.94312C2.21792 9.42841 2.38016 10.0357 2.60926 10.8907L2.99749 12.3396C3.22659 13.1946 3.38975 13.8017 3.55724 14.2654C3.72235 14.7225 3.87526 14.9908 4.05818 15.1861C4.38773 15.538 4.81422 15.7842 5.28372 15.8937C5.54432 15.9545 5.85318 15.9527 6.33157 15.8672C6.81686 15.7804 7.4242 15.6181 8.2792 15.389C9.13421 15.1599 9.7413 14.9968 10.205 14.8293C10.662 14.6642 10.9304 14.5113 11.1257 14.3284C11.2289 14.2317 11.323 14.1268 11.4072 14.0148C11.2729 13.9959 11.1348 13.9718 10.9918 13.9433C10.4879 13.8431 9.88265 13.681 9.13562 13.4808L9.09255 13.4692C8.26803 13.2483 7.61462 13.0732 7.10068 12.8876C6.57498 12.6977 6.14629 12.4804 5.79312 12.1497C5.27886 11.668 4.91898 11.0447 4.75898 10.3585C4.64911 9.88726 4.67532 9.40738 4.77371 8.85715C4.8699 8.31924 5.04498 7.66584 5.26592 6.84131L5.59126 5.6271ZM10.0816 2.13114C9.60319 2.0456 9.29432 2.04383 9.03372 2.1046C8.56422 2.21407 8.13773 2.4603 7.80818 2.81217C7.4811 3.16139 7.27982 3.70089 6.92977 4.98242C6.87288 5.1907 6.81273 5.41517 6.74749 5.65866L6.35926 7.10755C6.13016 7.96256 5.96792 8.56989 5.88114 9.05518C5.7956 9.53357 5.79383 9.84244 5.8546 10.103C5.96407 10.5725 6.2103 10.999 6.56216 11.3286C6.75747 11.5115 7.02584 11.6644 7.4829 11.8295C7.94657 11.997 8.55365 12.1602 9.40866 12.3893C10.1777 12.5953 10.7477 12.7478 11.2112 12.8399C11.6726 12.9317 11.9857 12.9542 12.2424 12.9225C12.2982 12.9156 12.3519 12.9061 12.4041 12.8939C12.8736 12.7845 13.3001 12.5382 13.6297 12.1864C13.8126 11.9911 13.9655 11.7227 14.1306 11.2656C14.2981 10.802 14.4613 10.1949 14.6904 9.33986L15.0786 7.89097C15.3077 7.03597 15.4699 6.42864 15.5567 5.94334C15.6423 5.46496 15.644 5.15609 15.5833 4.89549C15.4738 4.426 15.2276 3.9995 14.8757 3.66995C14.6804 3.48703 14.412 3.33413 13.955 3.16901C13.4913 3.00152 12.8842 2.83836 12.0292 2.60926C11.1742 2.38016 10.5669 2.21792 10.0816 2.13114Z" fill="currentColor"/>
</svg>
