<svg width="20" height="20" viewBox="0 0 20 20" fill="none" xmlns="http://www.w3.org/2000/svg">
<path fill-rule="evenodd" clip-rule="evenodd" d="M12.297 2.18456C13.8209 0.660729 16.2915 0.660729 17.8153 2.18456C19.3391 3.70839 19.3391 6.17901 17.8153 7.70284L9.91089 15.6073C9.4593 16.0589 9.19345 16.3248 8.89771 16.5554C8.54913 16.8273 8.17196 17.0604 7.77289 17.2506C7.43431 17.412 7.07762 17.5308 6.4717 17.7328L3.69576 18.6581L3.02736 18.8809C2.48523 19.0616 1.88752 18.9205 1.48344 18.5164C1.07935 18.1124 0.938256 17.5146 1.11897 16.9725L2.26707 13.5282C2.46903 12.9223 2.58791 12.5656 2.74927 12.227C2.93946 11.8279 3.17256 11.4507 3.44445 11.1022C3.67513 10.8064 3.94099 10.5406 4.39264 10.0889L12.297 2.18456ZM3.66693 17.3501L6.03486 16.5608C6.69412 16.341 6.97423 16.2465 7.23511 16.1222C7.55223 15.9711 7.85194 15.7858 8.12894 15.5698C8.35681 15.392 8.56661 15.1838 9.058 14.6924L15.3659 8.38449C14.7087 8.1527 13.862 7.72304 13.0694 6.93044C12.2768 6.13784 11.8472 5.29118 11.6154 4.63398L5.30748 10.9419C4.8161 11.4333 4.60783 11.6431 4.43009 11.8709C4.21404 12.1479 4.02881 12.4476 3.87768 12.7648C3.75334 13.0256 3.65884 13.3057 3.43908 13.965L2.64977 16.3329L3.66693 17.3501ZM12.6293 3.62006C12.6578 3.76586 12.706 3.96405 12.7864 4.19575C12.9673 4.71737 13.3092 5.40242 13.9533 6.04656C14.5975 6.69069 15.2825 7.03255 15.8041 7.21352C16.0358 7.2939 16.234 7.34207 16.3798 7.37057L16.9314 6.81896C17.9671 5.78328 17.9671 4.10412 16.9314 3.06844C15.8958 2.03277 14.2166 2.03277 13.1809 3.06844L12.6293 3.62006Z" fill="#BBBBBB"/>
</svg>
