<svg width="20" height="20" viewBox="0 0 20 20" fill="none" xmlns="http://www.w3.org/2000/svg">
<path fill-rule="evenodd" clip-rule="evenodd" d="M8.59097 1.87495H11.4088C11.5892 1.87484 11.7463 1.87474 11.8946 1.89843C12.4807 1.99202 12.9879 2.35756 13.262 2.88397C13.3314 3.01721 13.381 3.16628 13.4379 3.33739L13.5309 3.61647C13.5466 3.66371 13.5511 3.67709 13.5549 3.68762C13.7009 4.09105 14.0792 4.36377 14.5081 4.37464C14.5194 4.37492 14.5332 4.37497 14.5832 4.37497H17.0832C17.4284 4.37497 17.7082 4.65479 17.7082 4.99997C17.7082 5.34515 17.4284 5.62497 17.0832 5.62497H2.9165C2.57133 5.62497 2.2915 5.34515 2.2915 4.99997C2.2915 4.65479 2.57133 4.37497 2.9165 4.37497H5.41657C5.46661 4.37497 5.48042 4.37492 5.4917 4.37464C5.92057 4.36377 6.29892 4.09107 6.44486 3.68764C6.44869 3.67703 6.45311 3.66395 6.46893 3.61647L6.56194 3.33741C6.61885 3.16631 6.66844 3.01721 6.73782 2.88397C7.01195 2.35756 7.51911 1.99202 8.10519 1.89843C8.25354 1.87474 8.41065 1.87484 8.59097 1.87495ZM7.50663 4.37497C7.54955 4.29079 7.58759 4.20331 7.62032 4.11284C7.63025 4.08537 7.64 4.05612 7.65252 4.01855L7.73569 3.76904C7.81167 3.54112 7.82916 3.49463 7.84651 3.4613C7.93789 3.28583 8.10694 3.16399 8.3023 3.13279C8.33941 3.12687 8.38903 3.12497 8.62929 3.12497H11.3705C11.6108 3.12497 11.6604 3.12687 11.6975 3.13279C11.8929 3.16399 12.0619 3.28583 12.1533 3.4613C12.1707 3.49463 12.1881 3.54111 12.2641 3.76904L12.3472 4.0184L12.3795 4.11286C12.4122 4.20332 12.4503 4.29079 12.4932 4.37497H7.50663Z" fill="#BBBBBB"/>
<path d="M4.92908 7.04173C4.90612 6.69732 4.6083 6.43673 4.26389 6.45969C3.91948 6.48265 3.65889 6.78047 3.68185 7.12488L4.06805 12.918C4.1393 13.9869 4.19685 14.8504 4.33183 15.5279C4.47216 16.2324 4.71084 16.8208 5.20384 17.282C5.69684 17.7432 6.29979 17.9422 7.012 18.0354C7.69702 18.125 8.56237 18.125 9.63367 18.125H10.3661C11.4374 18.125 12.3028 18.125 12.9878 18.0354C13.7 17.9422 14.303 17.7432 14.796 17.282C15.289 16.8208 15.5277 16.2324 15.668 15.5279C15.803 14.8504 15.8605 13.987 15.9318 12.918L16.318 7.12488C16.3409 6.78047 16.0803 6.48265 15.7359 6.45969C15.3915 6.43673 15.0937 6.69732 15.0707 7.04173L14.6875 12.791C14.6126 13.9142 14.5592 14.6957 14.4421 15.2837C14.3284 15.8541 14.1698 16.156 13.942 16.3692C13.7142 16.5823 13.4024 16.7205 12.8257 16.796C12.2312 16.8737 11.4478 16.875 10.3221 16.875H9.67767C8.55197 16.875 7.76863 16.8737 7.17413 16.796C6.59746 16.7205 6.28566 16.5823 6.05782 16.3692C5.82998 16.156 5.67137 15.8541 5.55774 15.2837C5.4406 14.6957 5.38724 13.9142 5.31236 12.791L4.92908 7.04173Z" fill="#BBBBBB"/>
<path d="M7.85439 8.54474C8.19785 8.51039 8.50413 8.76098 8.53848 9.10445L8.95515 13.2711C8.98949 13.6146 8.7389 13.9209 8.39544 13.9552C8.05197 13.9895 7.7457 13.739 7.71135 13.3955L7.29468 9.22883C7.26034 8.88536 7.51093 8.57909 7.85439 8.54474Z" fill="#BBBBBB"/>
<path d="M12.1454 8.54474C12.4889 8.57909 12.7395 8.88536 12.7051 9.22883L12.2885 13.3955C12.2541 13.739 11.9479 13.9895 11.6044 13.9552C11.2609 13.9209 11.0103 13.6146 11.0447 13.2711L11.4613 9.10445C11.4957 8.76098 11.802 8.51039 12.1454 8.54474Z" fill="#BBBBBB"/>
</svg>
